# xmcd CD database file
#
# Track frame offsets:
#	150
#	12461
#	25256
#	39271
#	51169
#	64140
#	77195
#	92011
#	103792
#	117172
#	128655
#	141347
#	153731
#	165666
#	177150
#	189117
#	202102
#	214864
#	226219
#	239384
#	252347
#	266332
#
# Disc length: 3736 seconds
#
# Revision: 0
# Processed by: cddbd v1.5.2PL0 Copyright (c) Steve Scherf et al.
# Submitted via: CDex 1.70beta2
#
DISCID=300e9616
DTITLE=Various Artist - Jazz Roads CD149 - Swing - Willie 'The Lion' Smith (1934-37)
DYEAR=2006
DGENRE=Jazz
TTITLE0=Alabama Jug Band - Ida, Sweet As Apple Cider
TTITLE1=Alabama Jug Band - My Gal Sal
TTITLE2=Alabama Jug Band - Gulf Coast Blues
TTITLE3=Alabama Jug Band - I Wish I Could Shimmy Like My Sister Kate
TTITLE4=Alabama Jug Band - Jazz It Blues
TTITLE5=Alabama Jug Band - Somebody Stole My Gal
TTITLE6=Alabama Jug Band - Crazy Blues
TTITLE7=Alabama Jug Band - Sugar Blues
TTITLE8=Willie Smith (The Lion) And His Cubs - There's Gonna Be The Devil To Pay
TTITLE9=Willie Smith (The Lion) And His Cubs - Streamline Gal
TTITLE10=Willie Smith (The Lion) And His Cubs - What Can I Do With A Foolish Little Girl Like You
TTITLE11=Willie Smith (The Lion) And His Cubs - What Can I Do With A Foolish Little Girl Like You
TTITLE12=Willie Smith (The Lion) And His Cubs - Harlem Joys
TTITLE13=Willie Smith (The Lion) And His Cubs - Echos Of Spring
TTITLE14=Willie Smith (The Lion) And His Cubs - Echos Of Spring
TTITLE15=Willie Smith (The Lion) And His Cubs - Breeze (Blow My Baby Back To Me)
TTITLE16=Willie Smith (The Lion) And His Cubs - Swing, Brother, Swing
TTITLE17=Willie Smith (The Lion) And His Cubs - Sittin' At The Table (Opposite You)
TTITLE18=Willie Smith (The Lion) And His Cubs - The Swampland Is Calling Me
TTITLE19=Willie Smith (The Lion) And His Cubs - More Than That
TTITLE20=Willie Smith (The Lion) And His Cubs - I'm All Out Of Breath
TTITLE21=Willie Smith (The Lion) And His Cubs - I Can See You All Over The Place
EXTD=YEAR: 2006
EXTT0=
EXTT1=
EXTT2=
EXTT3=
EXTT4=
EXTT5=
EXTT6=
EXTT7=
EXTT8=
EXTT9=
EXTT10=
EXTT11=
EXTT12=
EXTT13=
EXTT14=
EXTT15=
EXTT16=
EXTT17=
EXTT18=
EXTT19=
EXTT20=
EXTT21=
PLAYORDER=
